<svg width="43.750092" height="22.821777" viewBox="0 0 43.7501 22.8218" fill="none" xmlns="http://www.w3.org/2000/svg" xmlns:xlink="http://www.w3.org/1999/xlink">
	<desc>
			Created with Pixso.
	</desc>
	<defs/>
	<path id="Vector" d="M43.51 20.61C43.46 20.5 43.41 20.41 43.36 20.35C42.61 19.1 41.16 17.56 39.01 15.74L38.97 15.7L38.95 15.68L38.92 15.66L38.9 15.66C37.93 14.81 37.31 14.24 37.06 13.95C36.58 13.4 36.48 12.83 36.74 12.26C36.92 11.83 37.6 10.92 38.79 9.54C39.41 8.8 39.9 8.21 40.27 7.77C42.89 4.57 44.03 2.53 43.68 1.64L43.55 1.44C43.46 1.31 43.22 1.2 42.84 1.09C42.46 0.99 41.98 0.97 41.38 1.04L34.82 1.08C34.72 1.05 34.57 1.05 34.37 1.09C34.17 1.13 34.07 1.15 34.07 1.15L33.96 1.21L33.87 1.27C33.79 1.31 33.71 1.38 33.62 1.49C33.53 1.59 33.45 1.71 33.39 1.85C32.67 3.53 31.86 5.09 30.95 6.54C30.39 7.4 29.87 8.14 29.4 8.78C28.93 9.41 28.54 9.87 28.22 10.17C27.9 10.47 27.61 10.71 27.35 10.89C27.09 11.07 26.9 11.15 26.76 11.12C26.62 11.09 26.49 11.06 26.37 11.04C26.16 10.91 25.99 10.74 25.86 10.53C25.73 10.31 25.64 10.04 25.6 9.71C25.55 9.39 25.53 9.11 25.52 8.87C25.51 8.63 25.51 8.3 25.53 7.87C25.55 7.44 25.55 7.15 25.55 7C25.55 6.47 25.56 5.9 25.59 5.28C25.61 4.66 25.63 4.17 25.64 3.81C25.66 3.45 25.67 3.07 25.67 2.66C25.67 2.26 25.64 1.95 25.59 1.72C25.53 1.49 25.45 1.27 25.35 1.05C25.24 0.83 25.09 0.67 24.88 0.55C24.68 0.43 24.42 0.34 24.12 0.27C23.31 0.1 22.29 0.01 21.04 0C18.22 -0.03 16.4 0.14 15.6 0.5C15.28 0.65 14.99 0.86 14.73 1.12C14.46 1.43 14.42 1.6 14.62 1.62C15.53 1.75 16.18 2.05 16.56 2.52L16.69 2.77C16.8 2.95 16.9 3.27 17.01 3.73C17.12 4.18 17.19 4.69 17.22 5.25C17.29 6.26 17.29 7.13 17.22 7.85C17.14 8.57 17.07 9.13 17 9.54C16.93 9.94 16.83 10.27 16.69 10.52C16.56 10.77 16.46 10.92 16.42 10.97C16.37 11.03 16.33 11.06 16.3 11.08C16.11 11.15 15.9 11.18 15.69 11.18C15.48 11.18 15.22 11.08 14.92 10.89C14.61 10.7 14.3 10.43 13.97 10.09C13.64 9.75 13.28 9.27 12.87 8.66C12.46 8.05 12.03 7.33 11.59 6.5L11.23 5.89C11 5.5 10.69 4.94 10.29 4.19C9.9 3.45 9.55 2.73 9.24 2.04C9.12 1.75 8.94 1.52 8.7 1.37L8.58 1.31C8.51 1.25 8.39 1.2 8.22 1.13C8.05 1.07 7.88 1.02 7.69 1L1.45 1.04C0.82 1.04 0.38 1.17 0.15 1.43L0.06 1.56C0.02 1.63 0 1.74 0 1.89C0 2.05 0.04 2.23 0.13 2.45C1.04 4.41 2.03 6.3 3.1 8.12C4.17 9.94 5.11 11.4 5.89 12.51C6.68 13.62 7.49 14.67 8.31 15.66C9.13 16.64 9.67 17.28 9.94 17.55C10.2 17.83 10.41 18.04 10.56 18.18L11.13 18.68C11.5 19.01 12.03 19.41 12.74 19.88C13.45 20.34 14.23 20.8 15.09 21.25C15.94 21.7 16.94 22.07 18.08 22.35C19.22 22.64 20.33 22.75 21.41 22.7L24.03 22.7C24.56 22.66 24.96 22.5 25.23 22.24L25.32 22.14C25.39 22.05 25.44 21.92 25.5 21.75C25.55 21.58 25.58 21.39 25.58 21.18C25.56 20.58 25.61 20.04 25.72 19.56C25.84 19.09 25.97 18.72 26.11 18.48C26.26 18.24 26.42 18.03 26.6 17.87C26.78 17.7 26.91 17.6 26.99 17.56C27.06 17.53 27.12 17.51 27.17 17.49C27.53 17.38 27.96 17.49 28.46 17.81C28.95 18.14 29.41 18.54 29.85 19.02C30.28 19.5 30.8 20.04 31.41 20.64C32.01 21.23 32.55 21.68 33 21.97L33.46 22.22C33.76 22.39 34.16 22.54 34.64 22.68C35.13 22.82 35.55 22.85 35.92 22.78L41.75 22.7C42.33 22.7 42.77 22.61 43.09 22.44C43.41 22.27 43.6 22.07 43.66 21.87C43.72 21.66 43.73 21.42 43.67 21.16C43.62 20.89 43.57 20.71 43.51 20.61Z" fill="#FFFFFF" fill-opacity="1.000000" fill-rule="nonzero"/>
</svg>
